<?xml version="1.0" encoding="utf-8"?>
<svg xmlns="http://www.w3.org/2000/svg" xmlns:xlink="http://www.w3.org/1999/xlink" version= "1.1" width="720px" height="1404px" viewBox="0 0 720 1404">
<g id="layer1">
<g style="fill:rgb(255,189,0); fill-opacity:1.0; stroke-linejoin: miter">
<path d="M976.68726,565.2848L976.68726,565.2848L1060.4285,530.9414L1068.7556,527.52637L1072.1707,535.8535L1075.3813,543.68243L1075.3813,543.6824L1081.7678,559.2547L1081.7678,559.2547L1088.587,575.8821L1088.587,575.8821L1097.4089,597.39276L1089.0818,600.80786L1089.0818,600.80786L1097.4089,597.39276L1106.514,619.5941L1106.514,619.5941L1158.0293,745.2051L1159.4438,748.6543L1158.0051,752.09357L1133.3064,811.1353L1124.921,831.18036L1116.6763,811.077L1030.8176,601.7258L1035.6714,606.6137L976.62897,581.9149L956.5837,573.52954L976.68726,565.2848 M983.51733,581.9391L983.5756,565.30896L1042.6182,590.00775L1046.0574,591.4465L1047.4719,594.8956L1133.3306,804.2468L1116.7004,804.18854L1141.3992,745.1468L1141.375,752.0353L1089.8597,626.4243L1089.6157,625.8292L1089.8597,626.4243L1080.7546,604.22296L1089.0818,600.80786L1089.0818,600.80786L1080.7546,604.22296L1071.9327,582.7123L1071.9327,582.7123L1065.1135,566.0849L1065.1135,566.0849L1058.727,550.5126L1058.727,550.5125L1055.5164,542.6836L1067.2585,547.5957L983.51733,581.9391 Z"/>
</g>
<g style="fill:rgb(255,189,0); fill-opacity:1.0; stroke-linejoin: miter">
<path d="M1039.9067,1094.001L1039.9067,1094.001L980.8649,1069.3027L960.8195,1060.9174L980.92316,1052.6726L1190.2749,966.81476L1185.387,971.6685L1210.0857,912.6272L1218.4711,892.58215L1226.7158,912.6855L1261.059,996.42535L1264.4741,1004.7525L1256.1469,1008.1676L1046.795,1094.0251L1043.346,1095.4397L1039.9067,1094.001 M1046.8533,1077.395L1039.965,1077.3708L1249.3168,991.5133L1244.4047,1003.25555L1210.0615,919.5157L1226.6917,919.574L1201.9929,978.6153L1200.5542,982.0545L1197.105,983.46906L987.75323,1069.3269L987.81146,1052.6968L1046.8533,1077.395 Z"/>
</g>
<g style="fill:rgb(255,189,0); fill-opacity:1.0; stroke-linejoin: miter">
<path d="M820.3302,1121.3828L820.3302,1121.3828L879.37213,1146.0808L899.41754,1154.4661L879.31396,1162.7109L795.57355,1197.0544L787.2465,1200.4695L783.83136,1192.1425L697.9722,982.7933L696.5576,979.34406L697.99634,975.9048L722.6947,916.8635L731.07996,896.8186L739.32477,916.9217L825.184,1126.2706L820.3302,1121.3828 M813.38367,1137.9888L809.94446,1136.55L808.52985,1133.101L722.6706,923.752L739.30066,923.8102L714.6023,982.85144L714.6264,975.96295L800.48553,1185.3121L788.74335,1180.4001L872.48376,1146.0566L872.4256,1162.6868L813.38367,1137.9888 Z"/>
</g>
<g style="fill:rgb(255,189,0); fill-opacity:1.0; stroke-linejoin: miter">
<path d="M816.0932,633.9962L816.0932,633.9962L875.1355,658.6947L895.18085,667.08L875.0773,675.3248L665.7251,761.18353L670.613,756.3297L645.9146,815.37164L637.52936,835.4167L629.28455,815.3135L594.94055,731.5731L591.5253,723.2459L599.85254,719.8308L809.2048,633.97205L812.65393,632.5575L816.0932,633.9962 M809.14655,650.6022L816.035,650.62634L606.68274,736.4851L611.5947,724.7428L645.9387,808.48315L629.30865,808.425L654.007,749.38306L655.44574,745.9438L658.8949,744.52924L868.2471,658.67053L868.18884,675.30066L809.14655,650.6022 Z"/>
</g>
<g style="fill:rgb(255,204,0); fill-opacity:1.0; stroke-linejoin: miter">
<path d="M1174.8451,688.87335L1174.8451,688.87335L1258.1042,724.36786L1266.3834,727.8974L1262.8539,736.17664L1245.887,775.97516L1245.887,775.97516L1227.3586,819.4356L1227.3586,819.4356L1174.1156,944.3238L1172.6536,947.7531L1169.195,949.1442L1109.818,973.02625L1089.659,981.1344L1098.1803,961.1466L1186.9183,752.99994L1186.8474,759.888L1162.9655,700.511L1154.8574,680.35236L1174.8451,688.87335 M1167.786,705.4317L1179.6656,693.79407L1203.5476,753.1711L1204.9387,756.62976L1203.4767,760.05914L1114.7386,968.2058L1103.101,956.3262L1162.4779,932.44415L1157.5573,937.2646L1210.8003,812.3764L1210.9364,812.0571L1210.8003,812.3764L1229.3286,768.91595L1229.3286,768.91595L1246.2955,729.11743L1251.0452,740.9262L1167.786,705.4317 Z"/>
</g>
<g style="fill:rgb(255,204,0); fill-opacity:1.0; stroke-linejoin: miter">
<path d="M842.85394,1105.1917L842.85394,1105.1917L818.9719,1045.8157L810.8638,1025.657L830.8515,1034.178L1038.9989,1122.9136L1032.1108,1122.8427L1091.4875,1098.9607L1111.6465,1090.8525L1103.1252,1110.8403L1067.6304,1194.0984L1064.1008,1202.3776L1055.8217,1198.848L847.67444,1110.1123L844.24506,1108.6503L842.85394,1105.1917 M859.554,1098.4746L854.7335,1093.554L1062.8807,1182.2897L1051.072,1187.0393L1086.5669,1103.7812L1098.2046,1115.6609L1038.8279,1139.5428L1035.3693,1140.934L1031.9398,1139.4719L823.7924,1050.7363L835.672,1039.0986L859.554,1098.4746 Z"/>
</g>
<g style="fill:rgb(255,204,0); fill-opacity:1.0; stroke-linejoin: miter">
<path d="M669.1537,968.1095L669.1537,968.1095L693.03613,1027.486L701.14435,1047.6447L681.1566,1039.1237L597.8971,1003.62933L589.6178,1000.0998L593.1474,991.8206L681.8842,783.6742L683.3462,780.2449L686.80493,778.8537L746.1818,754.9716L766.3406,746.8635L757.81946,766.8512L669.0828,974.99756L669.1537,968.1095 M652.4536,974.82654L651.0625,971.36786L652.5245,967.9385L741.2611,759.7921L752.89874,771.6717L693.52185,795.5538L698.44257,790.7333L609.70575,998.8797L604.95605,987.071L688.2156,1022.5653L676.33606,1034.203L652.4536,974.82654 Z"/>
</g>
<g style="fill:rgb(255,204,0); fill-opacity:1.0; stroke-linejoin: miter">
<path d="M1013.14667,622.805L1013.14667,622.805L1037.0288,682.1818L1045.1368,702.3405L1025.1492,693.81946L817.00073,605.08276L823.8888,605.1536L764.5114,629.0361L744.35254,637.1443L752.8737,617.15643L788.3688,533.8972L791.8983,525.6181L800.1775,529.14764L1008.3262,617.8843L1011.7555,619.34625L1013.14667,622.805 M996.4466,629.5219L1001.2671,634.4426L793.1184,545.706L804.9271,540.9564L769.43207,624.21564L757.7944,612.336L817.17175,588.45355L820.63043,587.06244L824.0598,588.5244L1032.2083,677.2611L1020.3287,688.89874L996.4466,629.5219 Z"/>
</g>
<g style="fill:rgb(255,204,0); fill-opacity:1.0; stroke-linejoin: miter">
<path d="M732.74023,779.4726C732.7017,779.4726,732.66284,779.47986,732.62573,779.4948L696.8661,793.8787L696.86786,793.87994L696.8609,793.8809C696.78973,793.9101,696.7304,793.9669,696.6983,794.0422L612.9529,990.48035C612.8864,990.6363,612.9589,990.8166,613.11487,990.88306L668.1079,1014.3281C668.14655,1014.3446,668.1875,1014.3527,668.22833,1014.3527C668.28766,1014.3527,668.34656,1014.3356,668.3975,1014.3019C668.4835,1014.24506,668.5352,1014.14886,668.5352,1014.0458L668.5352,1014.0448L668.51306,1013.93024L652.73865,974.71185L651.39496,971.37103L652.80695,968.059L733.02264,779.89996C733.07135,779.78577,733.0465,779.65344,732.9596,779.56476C732.9007,779.50464,732.8212,779.4726,732.74023,779.4726 Z"/>
</g>
<g style="fill:rgb(255,189,0); fill-opacity:1.0; stroke-linejoin: miter">
<path d="M812.58594,651.7336C812.5464,651.7336,812.5068,651.7412,812.4694,651.75653L614.8935,732.7865C614.7578,732.84216,614.6804,732.986,614.7088,733.1299C614.71686,733.17065,614.7327,733.2082,614.75476,733.2411L614.74817,733.24207L637.4098,788.4968C637.4569,788.6117,637.56854,788.6869,637.6927,788.6873L637.6937,788.6883C637.8175,788.6873,637.9292,788.6131,637.977,788.49884L654.2902,749.5017L655.6798,746.1799L659.01135,744.8135L848.26074,667.1994C848.3756,667.1523,848.4508,667.04065,848.45123,666.9165C848.45166,666.79236,848.3773,666.6801,848.26276,666.6322L812.70435,651.7573C812.66644,651.74146,812.6262,651.7336,812.58594,651.7336 Z"/>
</g>
<g style="fill:rgb(255,189,0); fill-opacity:1.0; stroke-linejoin: miter">
<path d="M730.9154,943.54755C730.7916,943.54755,730.67993,943.62177,730.63214,943.736L715.75775,979.2942C715.7263,979.3693,715.7261,979.4538,715.75696,979.5291L796.78644,1177.1028C796.8344,1177.2196,796.9479,1177.2933,797.0704,1177.2933C797.09,1177.2933,797.1099,1177.2914,797.1298,1177.2875C797.1505,1177.2834,797.17035,1177.2773,797.1892,1177.2694L797.1869,1177.2704L852.49756,1154.5865C852.6128,1154.5393,852.68805,1154.427,852.68805,1154.3025L852.68805,1154.3015C852.68805,1154.1777,852.6138,1154.066,852.4996,1154.0183L813.5022,1137.7053L810.1803,1136.3156L808.81396,1132.9843L731.19934,943.73804C731.1522,943.62317,731.0406,943.548,730.91644,943.54755 Z"/>
</g>
<g style="fill:rgb(255,204,0); fill-opacity:1.0; stroke-linejoin: miter">
<path d="M843.7797,1059.0381C843.7236,1059.0381,843.66833,1059.0597,843.62665,1059.1006C843.5634,1059.1626,843.54376,1059.2565,843.5768,1059.3386L857.95984,1095.0989C857.9882,1095.1694,858.05005,1095.2183,858.1212,1095.232L858.11115,1095.233L1054.516,1178.9619C1054.544,1178.9739,1054.5731,1178.9795,1054.6017,1178.9795C1054.6868,1178.9795,1054.7677,1178.9297,1054.8031,1178.8464L1078.2476,1123.8553L1078.2651,1123.7695L1078.2651,1123.7686C1078.2651,1123.6958,1078.2291,1123.6278,1078.1688,1123.5872C1078.1321,1123.5624,1078.0892,1123.5497,1078.0461,1123.5497C1078.0187,1123.5497,1077.991,1123.5548,1077.9646,1123.5654L1038.7462,1139.3396L1035.3716,1140.6967L1032.0256,1139.2703L1032.0256,1139.2704L843.86566,1059.0557C843.83795,1059.0438,843.8087,1059.0381,843.7797,1059.0381 Z"/>
</g>
<g style="fill:rgb(255,189,0); fill-opacity:1.0; stroke-linejoin: miter">
<path d="M1218.3062,939.50183C1218.2593,939.50183,1218.2169,939.53,1218.1987,939.57336L1201.8851,978.5702L1200.4651,981.9649L1197.0605,983.36096L1007.81177,1060.9742C1007.7682,1060.9921,1007.7396,1061.0345,1007.73944,1061.0817C1007.73926,1061.1288,1007.7675,1061.1714,1007.811,1061.1896L1043.3693,1076.0652C1043.3838,1076.0712,1043.399,1076.0742,1043.4142,1076.0742C1043.4302,1076.0742,1043.446,1076.0709,1043.4608,1076.0645L1043.4584,1076.0654L1241.034,995.03735C1241.0778,995.0194,1241.1064,994.97687,1241.1064,994.92957L1241.1064,994.9286L1241.0977,994.8844L1218.4141,939.57416C1218.3961,939.5306,1218.3538,939.502,1218.3066,939.50183 Z"/>
</g>
<g style="fill:rgb(255,204,0); fill-opacity:1.0; stroke-linejoin: miter">
<path d="M1187.7736,713.8219C1187.74,713.8219,1187.707,713.83484,1187.682,713.85925C1187.6442,713.8963,1187.6324,713.95245,1187.6522,714.0015L1203.426,753.2197L1204.7971,756.6283L1203.3564,760.0077L1123.1396,948.16705C1123.1189,948.2157,1123.1296,948.2721,1123.1666,948.3099C1123.1895,948.3332,1123.2196,948.3466,1123.2509,948.3488L1123.2396,948.3498C1123.2463,948.3498,1123.2529,948.35034,1123.2596,948.35034C1123.2776,948.35034,1123.2952,948.3466,1123.3112,948.33966L1123.3088,948.34064L1159.0684,933.9579C1159.1016,933.9446,1159.1271,933.9186,1159.1403,933.88684L1159.1399,933.8878L1210.9209,812.428L1218.539,794.5583L1225.8558,777.3956L1229.449,768.96704L1242.6862,737.9181L1242.686,737.9182L1242.8865,737.4491L1242.897,737.3977L1242.897,737.3967C1242.897,737.3443,1242.8657,737.297,1242.8175,737.2764L1187.8248,713.8324C1187.8082,713.8253,1187.7908,713.8219,1187.7736,713.8219 Z"/>
</g>
<g style="fill:rgb(255,189,0); fill-opacity:1.0; stroke-linejoin: miter">
<path d="M1058.9314,550.8189C1058.9067,550.8189,1058.8821,550.82367,1058.8588,550.8332L1003.54895,573.51764C1003.46423,573.55237,1003.41595,573.64215,1003.43365,573.732C1003.4494,573.8119,1003.5134,573.872,1003.59186,573.8843L1003.57776,573.88525L1042.5441,590.1847L1045.91,591.5928L1047.2946,594.96844L1124.9084,784.2167C1124.9379,784.2884,1125.0074,784.3354,1125.085,784.33563L1125.0856,784.3366C1125.1628,784.33563,1125.2327,784.2893,1125.2625,784.21796L1140.1373,748.6611L1140.1522,748.5871L1140.1522,748.5861L1140.1378,748.5134L1090.0371,626.3516L1090.0372,626.3526L1089.8975,626.0106L1089.8973,626.0116L1082.6661,608.37866L1075.5868,591.11664L1072.1101,582.63934L1059.3026,551.4105L1059.1088,550.9378C1059.0895,550.8908,1059.0524,550.85333,1059.0055,550.83374C1058.9818,550.82385,1058.9567,550.8189,1058.9314,550.8189 Z"/>
</g>
<g style="fill:rgb(255,204,0); fill-opacity:1.0; stroke-linejoin: miter">
<path d="M801.39746,548.9712C801.36395,548.9712,801.3305,548.97754,801.2988,548.99023C801.2338,549.01636,801.1818,549.06726,801.15436,549.1317L777.7103,604.1244C777.67554,604.206,777.6841,604.2996,777.733,604.37366C777.77496,604.43726,777.842,604.47906,777.91626,604.4896L777.90845,604.4906C777.9234,604.4922,777.9383,604.4934,777.953,604.4934C777.9862,604.4934,778.0186,604.4871,778.0487,604.4754L778.04614,604.4764L778.0459,604.47516L778.0494,604.47614C778.051,604.4745,778.0527,604.4738,778.0543,604.47314L778.05194,604.4741L817.2702,588.699L820.62726,587.3488L823.95605,588.7677L823.956,588.7687L1012.11725,668.9844C1012.15045,668.99854,1012.18567,669.0055,1012.22076,669.0055C1012.27185,669.0055,1012.32263,668.9907,1012.3665,668.96173C1012.44055,668.91284,1012.4851,668.8301,1012.4851,668.74133L1012.4851,668.74036L1012.466,668.6418L998.083,632.8828L998.08344,632.8838C998.0579,632.81854,998.00757,632.7655,997.9415,632.73737L801.50104,548.9923C801.46796,548.9782,801.43274,548.9712,801.39746,548.9712 Z"/>
</g>
</g>
<style>
  g {
    fill:black;
  }
  @media (prefers-color-scheme:dark) {
    g {
      fill:white;
    }
  }
</style>
</svg>
